<?xml version="1.0" ?><!DOCTYPE svg  PUBLIC '-//W3C//DTD SVG 1.1//EN'  'http://www.w3.org/Graphics/SVG/1.1/DTD/svg11.dtd'><svg enable-background="new 0 0 512 512" version="1.1" viewBox="0 0 512 512" xml:space="preserve" xmlns="http://www.w3.org/2000/svg" xmlns:xlink="http://www.w3.org/1999/xlink"><g id="Layer_2"><circle cx="255.9" cy="256.4" fill="#B21E28" r="222.3"/><path d="M381.4,202.5c25.5,31.5,27.5,66.5-48.7,66.5c-26.9,0-48.7-29.8-48.7-66.5s21.8-66.5,48.7-66.5   C359.6,136,358.3,174,381.4,202.5z" fill="#951823"/><path d="M131.1,202.5C105.7,234,103.6,269,179.8,269c26.9,0,48.7-29.8,48.7-66.5S206.7,136,179.8,136   S154.2,174,131.1,202.5z" fill="#951823"/><circle cx="180.9" cy="180.8" fill="#FFFFFF" r="48.2"/><circle cx="331.3" cy="180.8" fill="#FFFFFF" r="48.2"/><circle cx="180.9" cy="180.8" fill="#1F355E" r="13.9"/><circle cx="331.3" cy="180.8" fill="#1F355E" r="13.9"/><path d="M214.3,143.4c-19.7-19.7-51.8-19.7-71.5,0l71.5,71.5C234,195.1,234,163.1,214.3,143.4z"/><path d="M298,143.4c-19.7,19.7-19.7,51.8,0,71.5l71.5-71.5C349.7,123.6,317.7,123.6,298,143.4z"/><g><path d="M256.1,72.3c116.3,0,211.8,89.4,221.5,203.2c0.5-6.3,0.8-12.7,0.8-19.1c0-122.8-99.5-222.3-222.3-222.3    c-122.8,0-222.3,99.5-222.3,222.3c0,6.4,0.3,12.8,0.8,19.1C44.3,161.7,139.7,72.3,256.1,72.3z" fill="#B83031"/></g><g><path d="M255.9,478.7c82.3,0,154.1-44.7,192.6-111.2c-38.4-66.5-110.3-111.2-192.6-111.2    c-82.3,0-154.1,44.7-192.6,111.2C101.8,434,173.6,478.7,255.9,478.7z" fill="#C9A58F"/></g><polygon fill="#925417" points="362.7,255.4 256.1,361 149.4,255.4  "/><polygon fill="#ED8C1E" points="149.4,255.7 256.1,150.1 362.7,255.7  "/><polygon fill="#F49926" points="340,255.7 256.1,338.8 172.1,255.7  "/><polygon fill="#3A1212" points="320.5,255.9 256.1,319.7 191.6,255.9  "/><polygon fill="#71282B" points="296.5,255.9 256.1,299.3 215.6,255.9  "/><polygon fill="#F9B922" points="362.3,255.7 256.8,255.2 256.1,150.1  "/><polygon fill="#F7D68C" points="269.3,163.1 256,256 242.7,163.1 256.1,150.1  "/><ellipse cx="426.2" cy="254.1" fill="#951823" rx="19.6" ry="27" transform="matrix(0.98 -0.199 0.199 0.98 -42.0464 89.9089)"/><ellipse cx="85.7" cy="254.1" fill="#951823" rx="19.6" ry="27" transform="matrix(0.9798 0.1998 -0.1998 0.9798 52.4983 -11.993)"/><g opacity="0.15"><path d="M256.1,437.2c-109,0-198.6-88.5-208.4-201.6c-0.6,6.8-0.9,13.8-0.9,20.8c0,122.8,93.7,222.3,209.3,222.3    c115.6,0,209.3-99.5,209.3-222.3c0-7-0.3-13.9-0.9-20.8C454.6,348.7,365.1,437.2,256.1,437.2z"/></g><path d="M255.9,4.8C117,4.8,4.3,117.4,4.3,256.4C4.3,395.4,117,508,255.9,508s251.6-112.7,251.6-251.6   C507.5,117.4,394.9,4.8,255.9,4.8z M255.9,462.7c-114,0-206.3-92.4-206.3-206.3c0-114,92.4-206.3,206.3-206.3   c114,0,206.3,92.4,206.3,206.3C462.3,370.4,369.9,462.7,255.9,462.7z"/></g></svg>